<svg width="96" height="41" viewBox="0 0 96 41" fill="none" xmlns="http://www.w3.org/2000/svg">
<path d="M0.88212 0.882119C0.317299 1.44711 0 2.2133 0 3.0122C0 3.8111 0.317299 4.57729 0.88212 5.14228L15.7957 20.0558L0.88212 34.9694C0.333306 35.5376 0.0296274 36.2987 0.036492 37.0887C0.0433565 37.8786 0.360215 38.6343 0.91882 39.1929C1.47743 39.7515 2.23308 40.0683 3.02304 40.0752C3.813 40.0821 4.57405 39.7784 5.14228 39.2296L22.1859 22.1859C22.7507 21.6209 23.068 20.8547 23.068 20.0558C23.068 19.2569 22.7507 18.4908 22.1859 17.9258L5.14228 0.882119C4.57729 0.317299 3.8111 0 3.0122 0C2.2133 0 1.44711 0.317299 0.88212 0.882119Z" fill="#FBAA41"/>
<path d="M24.9843 0.882119C24.4195 1.44711 24.1022 2.2133 24.1022 3.0122C24.1022 3.8111 24.4195 4.57729 24.9843 5.14228L39.8979 20.0558L24.9843 34.9694C24.4355 35.5376 24.1318 36.2987 24.1387 37.0887C24.1455 37.8786 24.4624 38.6343 25.021 39.1929C25.5796 39.7515 26.3353 40.0683 27.1252 40.0752C27.9152 40.0821 28.6762 39.7784 29.2444 39.2296L46.2881 22.1859C46.8529 21.6209 47.1702 20.8547 47.1702 20.0558C47.1702 19.2569 46.8529 18.4908 46.2881 17.9258L29.2444 0.882119C28.6795 0.317299 27.9133 0 27.1144 0C26.3155 0 25.5493 0.317299 24.9843 0.882119Z" fill="#FBAA41"/>
<path d="M49.0865 0.882119C48.5216 1.44711 48.2043 2.2133 48.2043 3.0122C48.2043 3.8111 48.5216 4.57729 49.0865 5.14228L64 20.0558L49.0865 34.9694C48.5376 35.5376 48.234 36.2987 48.2408 37.0887C48.2477 37.8786 48.5646 38.6343 49.1232 39.1929C49.6818 39.7515 50.4374 40.0683 51.2274 40.0752C52.0173 40.0821 52.7784 39.7784 53.3466 39.2296L70.3903 22.1859C70.9551 21.6209 71.2724 20.8547 71.2724 20.0558C71.2724 19.2569 70.9551 18.4908 70.3903 17.9258L53.3466 0.882119C52.7816 0.317299 52.0154 0 51.2165 0C50.4176 0 49.6514 0.317299 49.0865 0.882119Z" fill="#FBAA41"/>
<path d="M73.1915 0.882119C72.6266 1.44711 72.3093 2.2133 72.3093 3.0122C72.3093 3.8111 72.6266 4.57729 73.1915 5.14228L88.105 20.0558L73.1915 34.9694C72.6426 35.5376 72.339 36.2987 72.3458 37.0887C72.3527 37.8786 72.6696 38.6343 73.2282 39.1929C73.7868 39.7515 74.5424 40.0683 75.3324 40.0752C76.1223 40.0821 76.8834 39.7784 77.4516 39.2296L94.4953 22.1859C95.0601 21.6209 95.3774 20.8547 95.3774 20.0558C95.3774 19.2569 95.0601 18.4908 94.4953 17.9258L77.4516 0.882119C76.8866 0.317299 76.1204 0 75.3215 0C74.5226 0 73.7565 0.317299 73.1915 0.882119Z" fill="#FBAA41"/>
</svg>
